<svg id="Layer_1" data-name="Layer 1" xmlns="http://www.w3.org/2000/svg" xmlns:xlink="http://www.w3.org/1999/xlink" viewBox="0 0 348.9 356.02"><defs><style>.cls-1{fill:none;clip-rule:evenodd;}.cls-2{clip-path:url(#clip-path);}.cls-3{fill:#fff;}.cls-4{clip-path:url(#clip-path-2);}.cls-5{clip-path:url(#clip-path-3);}.cls-6{clip-path:url(#clip-path-4);}.cls-7{clip-path:url(#clip-path-5);}.cls-8{fill:#e74133;}</style><clipPath id="clip-path"><path class="cls-1" d="M348.9,182.06a204.81,204.81,0,0,0-3.23-36.41H178V214.5h95.8a81.82,81.82,0,0,1-35.52,53.73V312.9h57.53c33.66-31,53.08-76.63,53.08-130.84Zm0,0"/></clipPath><clipPath id="clip-path-2"><path class="cls-1" d="M178,356c48.06,0,88.36-15.94,117.81-43.12l-57.53-44.67c-15.94,10.68-36.33,17-60.28,17-46.36,0-85.61-31.31-99.6-73.39H18.93V258A178,178,0,0,0,178,356Zm0,0"/></clipPath><clipPath id="clip-path-3"><path class="cls-1" d="M78.41,211.83a105.1,105.1,0,0,1,0-67.64V98.07H18.93a178.28,178.28,0,0,0,0,159.89l59.48-46.13Zm0,0"/></clipPath><clipPath id="clip-path-4"><path class="cls-1" d="M178,70.8c26.14,0,49.6,9,68.05,26.62l51.06-51.06C266.29,17.64,226,0,178,0A177.94,177.94,0,0,0,18.93,98.07l59.48,46.12c14-42.08,53.24-73.39,99.6-73.39Zm0,0"/></clipPath><clipPath id="clip-path-5"><path class="cls-1" d="M178,517.78c26.14,0,49.6,9,68.05,26.62l51.06-51.06C266.29,464.62,226,447,178,447A177.94,177.94,0,0,0,18.93,545.05l59.48,46.12c14-42.08,53.24-73.39,99.6-73.39Zm0,0"/></clipPath></defs><title>Artboard 32 copy</title><g class="cls-2"><rect id="_Path_" data-name="&lt;Path&gt;" class="cls-3" x="79.12" y="46.75" width="368.68" height="365.04"/></g><g class="cls-4"><rect id="_Path_2" data-name="&lt;Path&gt;" class="cls-3" x="-79.96" y="112.94" width="474.68" height="341.98"/></g><g class="cls-5"><rect id="_Path_3" data-name="&lt;Path&gt;" class="cls-3" x="-98.9" y="-0.83" width="276.2" height="357.68"/></g><g class="cls-6"><rect id="_Path_4" data-name="&lt;Path&gt;" class="cls-3" x="-79.96" y="-98.89" width="475.97" height="341.98"/></g><g class="cls-7"><rect id="_Path_5" data-name="&lt;Path&gt;" class="cls-8" x="-79.96" y="348.08" width="475.97" height="341.98"/></g></svg>