<svg id="Layer_1" data-name="Layer 1" xmlns="http://www.w3.org/2000/svg" viewBox="0 0 20 16"><defs><style>.cls-1{fill:none;}.cls-2{fill:#005063;}</style></defs><title>Artboard 37</title><path id="Path_18" data-name="Path 18" class="cls-1" d="M-2-4H22V20H-2Z"/><path id="Path_19" data-name="Path 19" class="cls-2" d="M18,0H2A2,2,0,0,0,0,2V14a2,2,0,0,0,2,2H18a2,2,0,0,0,2-2V2A2,2,0,0,0,18,0Zm-.4,4.25L11.06,8.34a2,2,0,0,1-2.12,0L2.4,4.25a.85.85,0,1,1,.9-1.44L10,7l6.7-4.19a.85.85,0,0,1,.9,1.44Z"/></svg>