<svg id="Layer_1" data-name="Layer 1" xmlns="http://www.w3.org/2000/svg" viewBox="0 0 136 136"><defs><style>.cls-1{fill:#006d80;}.cls-2{fill:#00d9ff;}.cls-3{opacity:0.4;}.cls-4{fill:none;stroke:#006d80;stroke-linecap:round;stroke-miterlimit:10;stroke-width:3px;}.cls-5{fill:#fff;}.cls-6{fill:#3772ff;}</style></defs><title>Artboard 31</title><path class="cls-1" d="M99.7,89.62l.18.94c-.56,3.17-11.8,7.71-26,10.42s-26.41,2.6-28-.16l-.18-.91v0c.25-1.45,2.75-3.19,6.76-4.92a97.25,97.25,0,0,1,19.27-5.5,98,98,0,0,1,19.92-2C96,87.65,98.94,88.36,99.7,89.62Z"/><ellipse class="cls-1" cx="70.06" cy="81.05" rx="26.44" ry="5.86" transform="translate(-13.9 14.5) rotate(-10.76)"/><path class="cls-1" d="M102.16,104.8c0,.22,0,.43,0,.65-.91,3.16-11.93,7.59-25.61,10.19s-25.26,2.49-27.31-.1h0c-.1-.2-.2-.41-.29-.61-.27-1.47,2-3.28,5.94-5.08a90.39,90.39,0,0,1,19.49-5.71,91.2,91.2,0,0,1,20.4-1.85C99.09,102.5,101.88,103.34,102.16,104.8Z"/><path class="cls-2" d="M95.87,75.69a69.65,69.65,0,0,1-24.49,9.92l-.44.09a69.37,69.37,0,0,1-26.86-.17,16.15,16.15,0,0,0,0,6.16l.32,1.69a65.22,65.22,0,0,0,8,1.59,63.54,63.54,0,0,0,39.19-7.45,62.13,62.13,0,0,0,6.88-4.42l-.32-1.69A16.15,16.15,0,0,0,95.87,75.69ZM79.08,68.44,57,72.63a16.19,16.19,0,0,0-10.66,7.19,63.41,63.41,0,0,0,23.43,0l.41-.08a63.42,63.42,0,0,0,21.42-8.47A16.24,16.24,0,0,0,79.08,68.44Zm-4.92,31.81-.44.09a69.26,69.26,0,0,1-28.09-.45h0L47.16,108a63.63,63.63,0,0,0,28.21,1l.41-.08a63.54,63.54,0,0,0,25.46-11.22L99.7,89.62A69.53,69.53,0,0,1,74.16,100.25ZM77,115.17l-.45.09a69.53,69.53,0,0,1-27.65-.34c.09.2.19.41.29.61h0a16.3,16.3,0,0,0,17.67,8.82l22-4.19a16.32,16.32,0,0,0,13.21-14.72c0-.22,0-.43,0-.65A69.49,69.49,0,0,1,77,115.17Z"/><path class="cls-2" d="M70.86,12.53a25.23,25.23,0,0,1,12,8.09,27.78,27.78,0,0,1,5.21,27,25.42,25.42,0,0,1-8.11,11.9,27.84,27.84,0,0,1-12.73,6.1,28.2,28.2,0,0,1-14.23-1,25.45,25.45,0,0,1-11.91-8.11,27.51,27.51,0,0,1-5-27.07,25.73,25.73,0,0,1,8.25-11.93,27.5,27.5,0,0,1,26.53-5Z"/><path class="cls-3" d="M80,59.53l0,0a27.89,27.89,0,0,1-27,5.13,25.37,25.37,0,0,1-11.91-8.11,27.5,27.5,0,0,1-5-27.07,26.67,26.67,0,0,1,2.51-5.37A30.09,30.09,0,0,0,38.24,37,31.1,31.1,0,0,0,45,51.17a28.16,28.16,0,0,0,13.25,9,31.22,31.22,0,0,0,15.83,1.09A29.6,29.6,0,0,0,80,59.53Z"/><g class="cls-3"><path d="M62.26,116.48a70.42,70.42,0,0,1-13.35-1.56l.28.61h0a16.3,16.3,0,0,0,17.67,8.82l6.39-1.21A9.68,9.68,0,0,1,62.26,116.48ZM45.63,99.9h0L47.16,108A64.39,64.39,0,0,0,61,110.11l-1.62-8.56A70.24,70.24,0,0,1,45.63,99.9ZM57.05,72.63a16.21,16.21,0,0,0-10.67,7.19,65.42,65.42,0,0,0,9.24,1,9.8,9.8,0,0,1,7.93-9.45Zm-13,12.9a16.15,16.15,0,0,0,0,6.16l.32,1.69a67.26,67.26,0,0,0,8,1.6c1.84.24,3.77.41,5.79.49l-1.62-8.56A69.63,69.63,0,0,1,44.08,85.53Z"/></g><line class="cls-4" x1="63.55" y1="42.37" x2="59.88" y2="31.85"/><line class="cls-4" x1="72.82" y1="39.14" x2="69.15" y2="28.62"/><path class="cls-4" d="M62,47.54c.06.15.12.3.19.45,2.25,5.37,6.92,8.55,10.62,7.13s5-6.91,3.11-12.41"/><path class="cls-1" d="M61.62,9.47A27.78,27.78,0,0,0,33.84,36.85c17-4.31,33.76-9.91,50.44-15.69A27.75,27.75,0,0,0,61.62,9.47Z"/><circle class="cls-5" cx="60.66" cy="18.53" r="5.23"/><circle class="cls-5" cx="60.66" cy="18.53" r="5.23"/><path class="cls-1" d="M63.2,18.76l0,.06c0,.21-.54.77-1.36,1.29s-1.59.82-1.76.69l0-.05h0c0-.1.09-.27.3-.48a6.55,6.55,0,0,1,1.06-.82,6.93,6.93,0,0,1,1.2-.62C62.91,18.73,63.12,18.7,63.2,18.76Z"/><ellipse class="cls-1" cx="61.14" cy="18.97" rx="1.77" ry="0.39" transform="translate(-0.63 35.76) rotate(-32.44)"/><path class="cls-1" d="M63.73,19.65v0c0,.22-.56.77-1.34,1.27s-1.52.78-1.71.67h0l0,0c-.06-.08,0-.25.24-.46A6.23,6.23,0,0,1,62,20.3a6.14,6.14,0,0,1,1.23-.62C63.48,19.58,63.67,19.57,63.73,19.65Z"/><path class="cls-2" d="M62.61,18a4.73,4.73,0,0,1-1.28,1.23h0a4.67,4.67,0,0,1-1.68.66,1,1,0,0,0,.15.38l.06.1a3.89,3.89,0,0,0,.54-.1,4.4,4.4,0,0,0,1.27-.55,4.13,4.13,0,0,0,1-.89,5.36,5.36,0,0,0,.32-.44l-.06-.1A1.18,1.18,0,0,0,62.61,18Zm-1.23,0-1.27.81a1.08,1.08,0,0,0-.48.72,4.23,4.23,0,0,0,1.46-.59h0a4.48,4.48,0,0,0,1.13-1.06A1.14,1.14,0,0,0,61.38,18Zm.49,2.11,0,0a4.85,4.85,0,0,1-1.76.67h0l.3.46a4.21,4.21,0,0,0,1.78-.63l0,0a4.1,4.1,0,0,0,1.31-1.33l-.29-.47A4.59,4.59,0,0,1,61.87,20.06Zm.54.86,0,0a4.58,4.58,0,0,1-1.73.66l0,0h0a1.08,1.08,0,0,0,1.32.11l1.27-.8a1.1,1.1,0,0,0,.46-1.25v0A4.74,4.74,0,0,1,62.41,20.92Z"/><path class="cls-2" d="M59.49,14.67a1.73,1.73,0,0,1,.94.21,1.86,1.86,0,0,1,.71.65,1.88,1.88,0,0,1,.29.91,1.71,1.71,0,0,1-.21.94,1.84,1.84,0,0,1-1.56,1,1.71,1.71,0,0,1-.94-.21,1.9,1.9,0,0,1-.7-.65,1.81,1.81,0,0,1-.28-.92,1.67,1.67,0,0,1,.22-.95,1.8,1.8,0,0,1,.63-.68A2,2,0,0,1,59.49,14.67Z"/><path class="cls-3" d="M61.22,17.38h0a1.84,1.84,0,0,1-1.56,1,1.71,1.71,0,0,1-.94-.21,1.9,1.9,0,0,1-.7-.65,1.81,1.81,0,0,1-.28-.92,1.67,1.67,0,0,1,0-.39,2,2,0,0,0,.3.81,2.2,2.2,0,0,0,.77.71,1.93,1.93,0,0,0,1.05.24,2.28,2.28,0,0,0,1-.33A2.51,2.51,0,0,0,61.22,17.38Z"/><g class="cls-3"><path d="M61.53,21.37a4.91,4.91,0,0,1-.87.23l0,0h0a1.08,1.08,0,0,0,1.32.11l.37-.23A.65.65,0,0,1,61.53,21.37Zm-1.45-.62h0l.3.46a3.92,3.92,0,0,0,.91-.21L61,20.51A5.28,5.28,0,0,1,60.08,20.75Zm0-2a1.08,1.08,0,0,0-.48.72,5.54,5.54,0,0,0,.6-.17.66.66,0,0,1,.26-.79Zm-.48,1.13a1,1,0,0,0,.15.38l.06.1a3.89,3.89,0,0,0,.54-.1l.37-.11-.31-.5A5,5,0,0,1,59.63,19.89Z"/></g><path class="cls-6" d="M34.05,36.85C31.62,31,73.74,12.24,89,12.77c1.47.05,5.5.19,5.92,1.74.57,2.06-9,6.18-11.25,7.4C76,23.76,51,32.75,34.05,36.85Z"/></svg>