<svg id="Layer_1" data-name="Layer 1" xmlns="http://www.w3.org/2000/svg" viewBox="0 0 514.84 159.5"><defs><style>.cls-1,.cls-13,.cls-2,.cls-5{isolation:isolate;}.cls-2{font-size:76.88px;fill:#00cfff;}.cls-2,.cls-5{font-family:StoutDeco, Stout Deco;}.cls-3{letter-spacing:-0.08em;}.cls-4{letter-spacing:0em;}.cls-5{font-size:32.95px;fill:#005063;}.cls-6{letter-spacing:-0.08em;}.cls-7{letter-spacing:-0.06em;}.cls-8{letter-spacing:0em;}.cls-9{letter-spacing:0.05em;}.cls-10{letter-spacing:-0.08em;}.cls-11{fill:#006d80;}.cls-12{fill:#00d9ff;}.cls-13,.cls-14{opacity:0.4;}</style></defs><title>Artboard 29</title><g id="Improbase." class="cls-1"><text class="cls-2" transform="translate(98.1 102.46)">Imp<tspan class="cls-3" x="132.77" y="0">r</tspan><tspan class="cls-4" x="169.19" y="0">obase.</tspan></text></g><g id="Improv_games_database" data-name="Improv games database" class="cls-1"><text class="cls-5" transform="translate(97.77 147.28)">Imp<tspan class="cls-6" x="56.9" y="0">r</tspan><tspan class="cls-7" x="72.51" y="0">o</tspan><tspan class="cls-8" x="91.14" y="0">v games d</tspan><tspan class="cls-9" x="263.71" y="0">a</tspan><tspan class="cls-10" x="286.04" y="0">t</tspan><tspan x="299.53" y="0">abase</tspan></text></g><g id="Group_6" data-name="Group 6"><g id="Group_1" data-name="Group 1"><path id="Path_8" data-name="Path 8" class="cls-11" d="M83,104.28l.19,1.21c-.86,4-15.4,9.43-33.73,12.33s-33.91,2.29-35.89-1.3l-.19-1.17h0c.39-1.86,3.66-4,8.87-6A124.67,124.67,0,0,1,47.11,103a124,124,0,0,1,25.6-1.69C78.29,101.64,82.05,102.63,83,104.28Z"/><ellipse id="Ellipse_1" data-name="Ellipse 1" class="cls-11" cx="45.35" cy="92.14" rx="33.85" ry="7.5" transform="translate(-13.86 8.23) rotate(-9)"/><path id="Path_9" data-name="Path 9" class="cls-11" d="M85.54,123.82a5.7,5.7,0,0,1-.09.83c-1.29,4-15.56,9.24-33.18,12s-32.46,2.18-35-1.19h0c-.12-.24-.21-.53-.34-.81-.3-1.88,2.65-4.11,7.8-6.25a115.07,115.07,0,0,1,25.16-6.56,118.13,118.13,0,0,1,26.22-1.58C81.7,120.74,85.24,121.94,85.54,123.82Z"/></g><g id="Group_5" data-name="Group 5"><g id="Group_4" data-name="Group 4"><g id="Group_2" data-name="Group 2"><path id="Path_10" data-name="Path 10" class="cls-12" d="M78.65,86.31A89.16,89.16,0,0,1,46.89,98.08l-.59.09a88.71,88.71,0,0,1-34.39-1.29,21.37,21.37,0,0,0-.25,7.89l.35,2.17a80.84,80.84,0,0,0,10.19,2.34,82.46,82.46,0,0,0,26.42,0,80.52,80.52,0,0,0,24-8,84.63,84.63,0,0,0,9-5.36l-.34-2.18A20.36,20.36,0,0,0,78.65,86.31ZM57.43,76.38,29,80.87A20.81,20.81,0,0,0,15.1,89.64a81.11,81.11,0,0,0,30,.87l.5-.08a81.4,81.4,0,0,0,27.75-10A20.54,20.54,0,0,0,57.43,76.38ZM49.87,116.9l-.59.1a89.12,89.12,0,0,1-35.95-1.69h0L15,125.77a81.08,81.08,0,0,0,36.07,2.44l.5-.08a81,81,0,0,0,33.05-13.38L83,104.29A88.42,88.42,0,0,1,49.87,116.9Zm3,19.21-.58.09A88.58,88.58,0,0,1,17,134.68a5.77,5.77,0,0,0,.34.81h0a20.89,20.89,0,0,0,22.27,12L67.94,143a20.86,20.86,0,0,0,17.47-18.33c0-.27,0-.57.09-.83A89,89,0,0,1,52.91,136.11Z"/></g><path id="Path_11" data-name="Path 11" class="cls-12" d="M49.09,4.44a32.24,32.24,0,0,1,15,10.83A36.35,36.35,0,0,1,71.57,32.1a35.75,35.75,0,0,1-1.82,18A32.74,32.74,0,0,1,58.9,65a35.76,35.76,0,0,1-34.73,5.5A32.8,32.8,0,0,1,9.24,59.69,36.1,36.1,0,0,1,1.9,43.14a35.59,35.59,0,0,1,2-18.33,33,33,0,0,1,11-15A36.37,36.37,0,0,1,31.31,2.67,36.11,36.11,0,0,1,49.09,4.44Z"/><path id="Path_12" data-name="Path 12" class="cls-13" d="M58.93,65s0,0,0,0h0a35.76,35.76,0,0,1-34.73,5.5A32.75,32.75,0,0,1,9.24,59.69,35.17,35.17,0,0,1,3.89,24.81,32.64,32.64,0,0,1,7.32,18a38.9,38.9,0,0,0-1,16.45,39.81,39.81,0,0,0,8.15,18.4A36.08,36.08,0,0,0,31.14,65,39.46,39.46,0,0,0,58.93,65Z"/><g id="Group_3" data-name="Group 3" class="cls-14"><path id="Path_13" data-name="Path 13" d="M34,137.22a90,90,0,0,1-17-2.54,5.77,5.77,0,0,0,.34.81v0a20.89,20.89,0,0,0,22.27,12l8.24-1.31A12.41,12.41,0,0,1,34,137.22ZM13.33,115.31h0L15,125.77A82.48,82.48,0,0,0,32.61,129l-1.74-11A89,89,0,0,1,13.33,115.31ZM29,80.87A20.79,20.79,0,0,0,15.1,89.64a82.32,82.32,0,0,0,11.8,1.65A12.58,12.58,0,0,1,37.43,79.5L29,80.83Zm-17.11,16a21.16,21.16,0,0,0-.25,7.85L12,106.9a81.09,81.09,0,0,0,10.2,2.37,67.79,67.79,0,0,0,7.38.86l-1.74-11A92.17,92.17,0,0,1,11.91,96.88Z"/></g></g></g></g></svg>